<?xml version="1.0" encoding="utf-8"?>
<!-- Generator: Adobe Illustrator 16.0.0, SVG Export Plug-In . SVG Version: 6.00 Build 0)  -->
<!DOCTYPE svg PUBLIC "-//W3C//DTD SVG 1.1//EN" "http://www.w3.org/Graphics/SVG/1.1/DTD/svg11.dtd">
<svg version="1.1" id="圖層_1" xmlns="http://www.w3.org/2000/svg" xmlns:xlink="http://www.w3.org/1999/xlink" x="0px" y="0px"
	 width="186.979px" height="35.996px" viewBox="0 0 186.979 35.996" enable-background="new 0 0 186.979 35.996"
	 xml:space="preserve">
<path fill="#231815" d="M11.427,0.062c3.365,0.008,3.891,0.014,6.628,0.014c5.321,0,9.191,3.558,9.282,7.492
	c0.052,2.212-1.445,4.931-5.274,6.249c10.78,2.632,9.586,19.638-2.958,19.638H11.44v-1.861h7.436
	c12.328-0.313,9.901-17.27-0.915-16.583H11.44v-1.725h5.963c11.252,0,9.877-11.437,0.771-11.437c-2.761,0-1.285,0.044-6.748,0.006
	L11.427,0.062z"/>
<path fill="#231815" d="M51.276,23.094c-0.168,3.063-1.23,5.564-3.176,7.52c-1.952,1.943-4.355,2.922-7.219,2.922
	c-1.391,0-2.717-0.263-3.979-0.787c-1.26-0.531-2.375-1.297-3.357-2.31c-1.012-1.026-1.777-2.187-2.311-3.49
	c-0.523-1.306-0.786-2.674-0.786-4.106c0-1.448,0.262-2.825,0.786-4.122c0.532-1.29,1.298-2.464,2.311-3.498
	c0.991-1.013,2.127-1.777,3.395-2.309c1.261-0.524,2.623-0.788,4.072-0.788c1.865,0,3.54,0.438,5.026,1.305
	c1.485,0.867,2.738,2.156,3.766,3.861l-14.38,9.606l-0.838-1.392l12.763-8.539c-0.787-1.063-1.711-1.879-2.797-2.433
	c-1.078-0.554-2.272-0.831-3.584-0.831c-2.418,0-4.458,0.882-6.133,2.638c-1.668,1.755-2.506,3.911-2.506,6.454
	c0,2.535,0.831,4.676,2.483,6.434c1.661,1.748,3.68,2.621,6.068,2.621c2.353,0,4.313-0.807,5.894-2.426
	c1.573-1.617,2.455-3.721,2.623-6.33H51.276z"/>
<path fill="#231815" d="M50.999,31.748h8.938c1.566,0,2.783-0.307,3.649-0.918c0.867-0.611,1.304-1.457,1.304-2.541
	c0-1.035-0.372-1.895-1.122-2.58c-0.743-0.686-1.945-1.246-3.591-1.689l-3.992-1.104c-1.749-0.48-3.045-1.158-3.883-2.021
	c-0.837-0.857-1.26-1.941-1.26-3.254c0-1.553,0.558-2.744,1.683-3.577c1.126-0.835,2.732-1.246,4.822-1.246h10.856v1.669H56.892
	c-1.326,0-2.332,0.276-3.022,0.83c-0.691,0.554-1.034,1.362-1.034,2.412c0,0.843,0.335,1.55,1.005,2.134
	c0.663,0.582,1.727,1.084,3.176,1.491l4.16,1.175c1.807,0.502,3.176,1.226,4.108,2.179c0.933,0.955,1.398,2.104,1.398,3.461
	c0,1.793-0.656,3.117-1.974,3.983c-1.319,0.864-3.336,1.306-6.068,1.306h-7.642V31.748z"/>
<path fill="#231815" d="M68.166,6.966h1.792v5.85h7.299v1.705h-7.299v11.545c0,1.987,0.48,3.444,1.45,4.355
	c0.969,0.91,2.506,1.361,4.611,1.361h1.238v1.668H76.34c-2.732,0-4.779-0.604-6.134-1.809c-1.363-1.202-2.04-3.002-2.04-5.411V6.966
	z"/>
<path fill="#BB1B21" d="M1.119,0h6.71c0.614,0,1.117,0.479,1.117,1.066v6.396c0,0.586-0.503,1.066-1.117,1.066h-6.71
	C0.503,8.528,0,8.048,0,7.462V1.066C0,0.479,0.503,0,1.119,0"/>
<path fill="#BB1B21" d="M8.946,16.67v0.889v4.591v0.026v0.892v0.024v2.912v0.027v2.539v0.026v3.83c0,0.586-0.503,1.063-1.118,1.063
	h-6.71C0.503,33.494,0,33.016,0,32.43v-3.854v-2.541v-2.966v-0.892v-4.619V16.67v-5.507c0-0.585,0.503-1.065,1.119-1.065h6.71
	c0.615,0,1.118,0.48,1.118,1.065L8.946,16.67z"/>
<path fill="#231815" d="M85.417,32.932l0.12-1.678l0.204-4.906l0.023-0.957c0.004-0.303,0.006-0.537,0.006-0.707
	c0.305,0.005,0.556,0.007,0.757,0.007c0.165,0,0.396-0.002,0.695-0.007l0.658,1.064l3.996,6.021l0.255-7.088l0.537,0.009
	l0.531-0.009l-0.133,2.114l-0.166,3.729L92.83,32.93c-0.237-0.007-0.472-0.011-0.702-0.011c-0.208,0-0.452,0.004-0.73,0.011
	l-0.556-0.888L86.75,25.91c-0.018,0.224-0.033,0.576-0.047,1.062l-0.169,4.272l-0.038,1.686c-0.261-0.007-0.436-0.011-0.523-0.011
	C85.908,32.92,85.722,32.924,85.417,32.932 M99.639,31.969c-0.047,0.224-0.097,0.506-0.145,0.849
	c-0.387,0.101-0.723,0.161-1.008,0.194c-0.281,0.035-0.565,0.054-0.847,0.054c-0.504,0-0.959-0.062-1.355-0.183
	c-0.401-0.119-0.745-0.33-1.03-0.631c-0.286-0.298-0.492-0.645-0.615-1.031c-0.127-0.387-0.188-0.795-0.188-1.224
	c0-0.604,0.114-1.159,0.345-1.675c0.229-0.515,0.575-0.918,1.036-1.211c0.462-0.293,1.047-0.441,1.754-0.441
	c0.368,0,0.718,0.055,1.052,0.164c0.334,0.104,0.613,0.268,0.834,0.482c0.224,0.22,0.394,0.485,0.515,0.811
	c0.121,0.318,0.183,0.668,0.183,1.047c0,0.146-0.016,0.287-0.037,0.424h-4.609c-0.018,0.222-0.023,0.39-0.023,0.506
	c0,0.425,0.089,0.814,0.268,1.169c0.177,0.356,0.438,0.627,0.784,0.813c0.345,0.183,0.745,0.271,1.195,0.271
	C98.262,32.355,98.895,32.227,99.639,31.969 M95.566,29.096h3.602c-0.004-0.254-0.021-0.451-0.047-0.592
	c-0.028-0.143-0.081-0.289-0.159-0.438c-0.077-0.149-0.18-0.279-0.312-0.392c-0.132-0.113-0.289-0.197-0.472-0.256
	c-0.185-0.061-0.382-0.086-0.598-0.086c-0.229,0-0.447,0.029-0.652,0.096c-0.209,0.063-0.393,0.153-0.551,0.267
	s-0.296,0.246-0.404,0.396c-0.11,0.148-0.191,0.297-0.248,0.438C95.672,28.668,95.62,28.857,95.566,29.096 M104.288,32.133
	c-0.043,0.199-0.093,0.461-0.146,0.787c-0.271,0.063-0.489,0.104-0.649,0.119c-0.163,0.018-0.316,0.022-0.459,0.022
	c-0.359,0-0.648-0.045-0.867-0.138c-0.221-0.09-0.389-0.232-0.505-0.434c-0.118-0.199-0.177-0.473-0.177-0.813
	c0-0.044,0.002-0.119,0.008-0.233c0.004-0.111,0.022-0.507,0.061-1.179l0.146-2.707h-0.807c0.02-0.168,0.031-0.407,0.046-0.726
	h0.819c0.021-0.229,0.041-0.608,0.062-1.153c0.379-0.071,0.698-0.143,0.959-0.207c-0.026,0.597-0.042,1.052-0.047,1.36h1.681
	c-0.021,0.254-0.033,0.497-0.037,0.726H102.7l-0.163,3.401l-0.009,0.261c0,0.293,0.033,0.515,0.102,0.659
	c0.065,0.147,0.167,0.254,0.3,0.317c0.134,0.063,0.271,0.097,0.416,0.097c0.1,0,0.209-0.007,0.325-0.021
	C103.789,32.254,103.995,32.209,104.288,32.133 M106.762,32.932l-0.285-0.877l-1.873-5.244c0.225,0.005,0.401,0.007,0.539,0.007
	c0.13,0,0.296-0.002,0.496-0.007l0.53,1.625l1.229,3.563l1.909-5.188c0.218,0.005,0.402,0.007,0.555,0.007
	c0.169,0,0.35-0.002,0.546-0.007l1.397,5.188l1.688-4.015l0.473-1.173c0.216,0.005,0.384,0.007,0.501,0.007l0.52-0.007l-2.034,4.56
	l-0.664,1.562c-0.202-0.008-0.389-0.012-0.557-0.012c-0.175,0-0.378,0.004-0.609,0.012l-1.112-4.243
	c-0.07-0.274-0.148-0.552-0.229-0.824l-0.12,0.313c-0.038,0.088-0.12,0.313-0.248,0.67l-1.277,3.482
	c-0.063,0.164-0.131,0.363-0.212,0.603c-0.204-0.009-0.391-0.013-0.557-0.013C107.188,32.92,106.984,32.924,106.762,32.932
	 M118.557,26.67c0.425,0,0.825,0.063,1.207,0.184c0.384,0.119,0.718,0.313,0.994,0.574c0.281,0.263,0.493,0.592,0.64,0.99
	c0.146,0.398,0.217,0.818,0.217,1.264c0,0.48-0.077,0.939-0.231,1.377c-0.152,0.439-0.37,0.813-0.65,1.117
	c-0.279,0.308-0.623,0.531-1.025,0.674c-0.406,0.146-0.84,0.216-1.305,0.216c-0.433,0-0.838-0.063-1.22-0.192
	c-0.385-0.126-0.717-0.33-0.996-0.604c-0.28-0.271-0.492-0.605-0.639-1.004c-0.146-0.396-0.216-0.812-0.216-1.248
	c0-0.653,0.131-1.245,0.396-1.77c0.268-0.528,0.658-0.92,1.173-1.181C117.417,26.803,117.967,26.67,118.557,26.67 M118.533,27.439
	c-0.411,0-0.789,0.104-1.135,0.308c-0.345,0.207-0.601,0.515-0.766,0.929c-0.165,0.412-0.247,0.862-0.247,1.351
	c0,0.429,0.067,0.813,0.206,1.149c0.136,0.342,0.361,0.617,0.677,0.826c0.313,0.207,0.693,0.313,1.135,0.313
	c0.305,0,0.59-0.052,0.857-0.151c0.271-0.104,0.506-0.272,0.707-0.513c0.203-0.235,0.352-0.528,0.447-0.873
	c0.098-0.343,0.145-0.705,0.145-1.082c0-0.354-0.047-0.688-0.145-1c-0.098-0.31-0.245-0.56-0.445-0.742
	c-0.196-0.189-0.424-0.321-0.676-0.397C119.044,27.479,118.791,27.439,118.533,27.439 M122.777,32.932
	c0.146-2.323,0.22-4.182,0.22-5.562l-0.005-0.56c0.203,0.005,0.373,0.007,0.507,0.007c0.151,0,0.321-0.002,0.515-0.007l-0.051,1.003
	c0.15-0.25,0.283-0.438,0.396-0.563c0.114-0.128,0.243-0.232,0.391-0.314c0.146-0.084,0.309-0.146,0.492-0.188
	c0.186-0.051,0.374-0.073,0.569-0.073c0.171,0,0.337,0.021,0.503,0.063c0.004,0.266,0.02,0.563,0.043,0.895
	c-0.25-0.065-0.476-0.104-0.671-0.104c-0.239,0-0.452,0.039-0.643,0.119c-0.188,0.075-0.361,0.196-0.512,0.354
	c-0.151,0.159-0.274,0.351-0.372,0.569c-0.081,0.179-0.145,0.405-0.188,0.688c-0.041,0.28-0.073,0.793-0.1,1.541
	c-0.018,0.543-0.023,1.119-0.023,1.729v0.401c-0.218-0.008-0.394-0.012-0.523-0.012C123.208,32.92,123.023,32.924,122.777,32.932
	 M127.139,32.932l0.104-1.637l0.125-3.136l0.065-2.632c0.005-0.381,0.007-0.664,0.007-0.847l0.563,0.009
	c0.108,0,0.285-0.005,0.524-0.009c-0.054,0.648-0.114,1.909-0.191,3.78c-0.074,1.871-0.117,3.358-0.129,4.468
	c-0.25-0.007-0.426-0.011-0.523-0.011C127.568,32.92,127.389,32.924,127.139,32.932 M128.383,29.518l0.31,0.404l0.937,1.144
	c0.291,0.354,0.479,0.582,0.563,0.69l0.888,1.176c0.262-0.008,0.47-0.012,0.623-0.012c0.15,0,0.354,0.004,0.604,0.012
	c-1.396-1.635-2.34-2.77-2.825-3.409l2.607-2.712c-0.273,0.005-0.489,0.007-0.646,0.007c-0.125,0-0.328-0.002-0.604-0.007
	c-0.384,0.468-0.791,0.935-1.223,1.394L128.383,29.518z"/>
<path fill="#231815" d="M140.934,32.01c-0.055,0.291-0.104,0.607-0.147,0.945c-0.794,0.16-1.521,0.24-2.183,0.24
	c-0.59,0-1.155-0.09-1.702-0.269c-0.55-0.183-1.024-0.455-1.431-0.832c-0.404-0.375-0.698-0.815-0.885-1.323
	c-0.186-0.509-0.277-1.05-0.277-1.63c0-0.62,0.104-1.222,0.309-1.795c0.207-0.578,0.518-1.063,0.935-1.468
	c0.418-0.398,0.92-0.698,1.511-0.896c0.59-0.201,1.209-0.302,1.854-0.302c0.69,0,1.384,0.073,2.072,0.218
	c0.005,0.207,0.024,0.521,0.065,0.943c-0.448-0.137-0.828-0.229-1.144-0.271c-0.313-0.049-0.611-0.07-0.895-0.07
	c-0.479,0-0.938,0.076-1.379,0.221c-0.438,0.146-0.826,0.383-1.166,0.705c-0.337,0.32-0.598,0.715-0.776,1.187
	c-0.181,0.47-0.27,0.957-0.27,1.466c0,0.472,0.072,0.92,0.214,1.34c0.144,0.424,0.363,0.78,0.658,1.071
	c0.297,0.293,0.646,0.518,1.055,0.673c0.405,0.151,0.863,0.229,1.371,0.229C139.365,32.391,140.102,32.262,140.934,32.01
	 M145.238,26.805c0.424,0,0.824,0.06,1.207,0.183c0.384,0.119,0.717,0.313,0.994,0.571c0.28,0.263,0.491,0.593,0.64,0.992
	c0.146,0.396,0.216,0.82,0.216,1.265c0,0.479-0.078,0.938-0.231,1.375c-0.153,0.438-0.372,0.813-0.65,1.116
	c-0.28,0.308-0.623,0.532-1.027,0.675c-0.405,0.146-0.839,0.217-1.304,0.217c-0.434,0-0.837-0.063-1.22-0.191
	c-0.383-0.13-0.715-0.331-0.993-0.604c-0.281-0.271-0.493-0.607-0.643-1.004c-0.144-0.398-0.215-0.813-0.215-1.248
	c0-0.654,0.131-1.248,0.398-1.773c0.266-0.525,0.655-0.918,1.173-1.178C144.098,26.934,144.648,26.805,145.238,26.805
	 M145.214,27.57c-0.409,0-0.788,0.104-1.132,0.309c-0.346,0.207-0.602,0.516-0.768,0.928c-0.164,0.414-0.246,0.861-0.246,1.354
	c0,0.429,0.067,0.812,0.205,1.148c0.138,0.341,0.36,0.615,0.678,0.824c0.313,0.209,0.69,0.314,1.135,0.314
	c0.303,0,0.587-0.051,0.854-0.154c0.271-0.102,0.507-0.271,0.71-0.51c0.2-0.235,0.351-0.531,0.446-0.873
	c0.097-0.346,0.146-0.707,0.146-1.084c0-0.355-0.05-0.689-0.146-0.998c-0.098-0.312-0.246-0.562-0.444-0.746
	c-0.197-0.188-0.427-0.32-0.679-0.396C145.727,27.609,145.473,27.57,145.214,27.57 M149.468,33.063l0.066-0.875
	c0.011-0.188,0.025-0.479,0.049-0.878l0.146-3.682c0.004-0.301,0.007-0.531,0.007-0.688c0.188,0.004,0.362,0.006,0.521,0.006
	c0.169,0,0.336-0.002,0.501-0.006l-0.054,1.123c0.136-0.226,0.26-0.402,0.37-0.535c0.108-0.136,0.258-0.256,0.438-0.369
	c0.182-0.112,0.39-0.199,0.618-0.264c0.229-0.063,0.474-0.095,0.722-0.095c0.175,0,0.345,0.021,0.517,0.062
	c0.169,0.039,0.323,0.098,0.469,0.17c0.144,0.069,0.266,0.153,0.369,0.246c0.102,0.094,0.184,0.194,0.248,0.305
	c0.063,0.107,0.125,0.266,0.188,0.471c0.244-0.463,0.552-0.787,0.923-0.971c0.368-0.188,0.777-0.279,1.233-0.279
	c0.291,0,0.571,0.043,0.844,0.138c0.272,0.097,0.488,0.229,0.649,0.399c0.161,0.174,0.269,0.354,0.321,0.541
	c0.057,0.188,0.082,0.375,0.082,0.564c0,0.192-0.015,0.481-0.041,0.869c-0.028,0.387-0.063,0.977-0.099,1.77
	c-0.037,0.791-0.056,1.451-0.06,1.979c-0.216-0.009-0.384-0.015-0.503-0.015c-0.129,0-0.32,0.006-0.573,0.015
	c0.043-0.546,0.082-1.138,0.115-1.774l0.075-1.498c0.021-0.362,0.03-0.679,0.03-0.938c0-0.232-0.022-0.421-0.071-0.552
	c-0.048-0.129-0.128-0.25-0.232-0.354c-0.107-0.104-0.238-0.187-0.396-0.238c-0.155-0.057-0.336-0.082-0.538-0.082
	c-0.159,0-0.31,0.019-0.443,0.053c-0.13,0.037-0.254,0.095-0.375,0.166c-0.133,0.077-0.251,0.17-0.357,0.285
	c-0.104,0.107-0.19,0.232-0.266,0.369c-0.077,0.141-0.139,0.309-0.188,0.502c-0.062,0.244-0.103,0.541-0.128,0.894
	c-0.025,0.375-0.049,0.866-0.063,1.479l-0.049,1.689c-0.233-0.009-0.409-0.013-0.524-0.013c-0.11,0-0.293,0.004-0.552,0.013
	c0.039-0.498,0.07-1.013,0.098-1.539l0.069-1.463c0.021-0.453,0.028-0.837,0.028-1.154c0-0.205-0.021-0.381-0.06-0.521
	c-0.041-0.143-0.115-0.274-0.227-0.396c-0.112-0.115-0.245-0.207-0.402-0.271c-0.156-0.063-0.33-0.093-0.52-0.093
	c-0.201,0-0.394,0.035-0.574,0.104c-0.18,0.069-0.349,0.176-0.498,0.313c-0.156,0.138-0.283,0.306-0.392,0.505
	c-0.104,0.199-0.185,0.461-0.241,0.785c-0.062,0.326-0.104,0.891-0.142,1.695c-0.033,0.805-0.052,1.483-0.052,2.035
	c-0.258-0.009-0.435-0.013-0.53-0.013C149.913,33.051,149.729,33.057,149.468,33.063 M159.971,35.795
	c0.082-1.038,0.156-2.451,0.229-4.242c0.067-1.787,0.108-3.25,0.115-4.385c0.661-0.143,1.189-0.238,1.588-0.289
	c0.396-0.051,0.795-0.074,1.192-0.074c0.629,0,1.174,0.099,1.637,0.297c0.464,0.201,0.826,0.554,1.084,1.057
	c0.259,0.5,0.386,1.066,0.386,1.698c0,0.438-0.062,0.862-0.183,1.271s-0.305,0.773-0.554,1.096
	c-0.247,0.325-0.546,0.564-0.896,0.729c-0.353,0.161-0.741,0.245-1.175,0.245c-0.258,0-0.506-0.03-0.741-0.095
	c-0.236-0.063-0.442-0.145-0.618-0.245c-0.177-0.1-0.324-0.211-0.44-0.339c-0.119-0.122-0.265-0.311-0.433-0.561l-0.073,2.393
	c-0.016,0.393-0.024,0.675-0.024,0.847v0.6c-0.203-0.007-0.384-0.013-0.535-0.013C160.387,35.783,160.2,35.787,159.971,35.795
	 M161.354,27.887l-0.043,0.461l-0.026,0.625c-0.019,0.332-0.029,0.604-0.037,0.808c-0.01,0.209-0.015,0.354-0.015,0.438
	c0,0.299,0.033,0.581,0.098,0.847c0.062,0.267,0.188,0.508,0.374,0.728c0.188,0.224,0.408,0.388,0.66,0.502
	c0.256,0.11,0.518,0.169,0.787,0.169c0.379,0,0.724-0.104,1.03-0.313c0.308-0.209,0.55-0.521,0.724-0.937
	c0.174-0.419,0.261-0.87,0.261-1.361c0-0.493-0.09-0.922-0.272-1.28c-0.182-0.356-0.425-0.615-0.729-0.773
	c-0.309-0.16-0.654-0.24-1.04-0.24C162.565,27.553,161.979,27.664,161.354,27.887 M167.771,27.916
	c0.036-0.18,0.073-0.439,0.114-0.784c0.482-0.125,0.903-0.212,1.261-0.257c0.355-0.049,0.702-0.07,1.04-0.07
	c0.363,0,0.701,0.034,1.021,0.099c0.313,0.069,0.579,0.177,0.787,0.323c0.211,0.148,0.349,0.321,0.417,0.518
	c0.065,0.189,0.104,0.396,0.104,0.623c0,0.275-0.021,0.741-0.063,1.396c-0.042,0.652-0.075,1.261-0.097,1.814
	c-0.021,0.557-0.031,1.054-0.031,1.486c-0.22-0.009-0.396-0.014-0.531-0.014c-0.13,0-0.313,0.005-0.551,0.014l0.127-1.646
	l0.091-1.952c-0.141,0.108-0.246,0.186-0.316,0.229c-0.069,0.045-0.148,0.086-0.239,0.123c-0.089,0.039-0.187,0.073-0.293,0.108
	c-0.105,0.035-0.313,0.092-0.623,0.176c-0.31,0.086-0.525,0.152-0.653,0.196c-0.278,0.087-0.499,0.177-0.661,0.265
	c-0.16,0.091-0.297,0.188-0.403,0.289c-0.107,0.105-0.187,0.211-0.229,0.314c-0.052,0.129-0.078,0.266-0.078,0.404
	c0,0.219,0.063,0.405,0.192,0.567c0.129,0.16,0.293,0.271,0.485,0.336c0.197,0.063,0.431,0.093,0.705,0.093
	c0.168,0,0.347-0.013,0.53-0.037c0.188-0.021,0.438-0.084,0.746-0.188c-0.058,0.158-0.123,0.397-0.194,0.727
	c-0.295,0.059-0.532,0.094-0.72,0.106c-0.187,0.011-0.36,0.021-0.526,0.021c-0.55,0-0.979-0.063-1.293-0.193
	c-0.309-0.127-0.541-0.322-0.694-0.588c-0.15-0.266-0.229-0.551-0.229-0.861c0-0.182,0.025-0.35,0.083-0.502
	c0.054-0.151,0.128-0.291,0.222-0.416c0.089-0.123,0.222-0.25,0.395-0.373c0.173-0.127,0.351-0.229,0.538-0.313
	c0.188-0.078,0.406-0.156,0.656-0.236c0.25-0.079,0.649-0.186,1.202-0.313c0.177-0.043,0.328-0.084,0.453-0.125
	c0.125-0.043,0.236-0.084,0.332-0.123c0.099-0.043,0.183-0.091,0.256-0.145c0.072-0.056,0.138-0.122,0.198-0.2
	c0.062-0.078,0.104-0.157,0.134-0.237c0.026-0.082,0.041-0.162,0.041-0.239c0-0.196-0.063-0.364-0.19-0.511
	c-0.129-0.142-0.299-0.237-0.504-0.295c-0.209-0.056-0.452-0.084-0.733-0.084c-0.263,0-0.532,0.021-0.808,0.063
	c-0.275,0.041-0.515,0.092-0.713,0.148C168.315,27.711,168.07,27.798,167.771,27.916 M173.922,33.063
	c0.194-2.524,0.295-4.563,0.303-6.121l0.543,0.006c0.136,0,0.312-0.002,0.526-0.006l-0.08,1.207c0.103-0.168,0.184-0.298,0.241-0.39
	c0.063-0.09,0.143-0.186,0.24-0.285c0.103-0.102,0.222-0.194,0.356-0.28c0.139-0.086,0.299-0.157,0.483-0.22
	c0.187-0.059,0.374-0.102,0.564-0.129c0.19-0.026,0.382-0.043,0.57-0.043c0.348,0,0.682,0.043,1.003,0.129
	c0.322,0.084,0.589,0.22,0.796,0.412c0.207,0.191,0.348,0.406,0.418,0.646c0.068,0.235,0.104,0.492,0.104,0.768
	c0,0.055-0.001,0.153-0.009,0.305c-0.002,0.147-0.013,0.345-0.022,0.587l-0.118,2.527c-0.009,0.244-0.016,0.541-0.02,0.893
	c-0.185-0.009-0.354-0.015-0.517-0.015c-0.198,0-0.384,0.006-0.557,0.015c0.041-0.486,0.07-0.957,0.092-1.41l0.077-1.404
	c0.023-0.484,0.038-0.85,0.038-1.094c0-0.354-0.063-0.642-0.185-0.851c-0.12-0.213-0.313-0.377-0.577-0.489
	c-0.269-0.113-0.565-0.174-0.896-0.174c-0.467,0-0.867,0.11-1.203,0.331c-0.306,0.209-0.543,0.498-0.711,0.878
	c-0.119,0.271-0.201,0.668-0.248,1.195c-0.061,0.634-0.104,1.639-0.127,3.018c-0.227-0.009-0.399-0.015-0.524-0.015
	C174.365,33.051,174.176,33.057,173.922,33.063 M180.42,35.861c-0.029-0.343-0.063-0.634-0.104-0.869
	c0.201,0.099,0.39,0.162,0.563,0.194c0.174,0.035,0.322,0.052,0.44,0.052c0.155,0,0.312-0.027,0.459-0.084
	c0.147-0.056,0.271-0.131,0.362-0.226c0.092-0.09,0.189-0.222,0.293-0.384c0.104-0.163,0.211-0.354,0.328-0.575
	c0.114-0.222,0.226-0.468,0.33-0.739l-1.289-3.673l-0.94-2.623c0.295,0.009,0.487,0.013,0.584,0.013c0.114,0,0.3-0.004,0.553-0.013
	c0.063,0.281,0.117,0.496,0.164,0.647c0.042,0.146,0.141,0.451,0.289,0.91l0.912,2.771c0.102,0.314,0.201,0.654,0.304,1.018
	l0.683-1.669l1.263-2.954c0.036-0.089,0.073-0.184,0.105-0.272c0.035-0.099,0.089-0.246,0.16-0.451
	c0.259,0.009,0.438,0.013,0.539,0.013c0.084,0,0.271-0.004,0.562-0.013c-0.157,0.356-0.538,1.192-1.144,2.509l-2.242,4.983
	c-0.157,0.334-0.299,0.588-0.429,0.763c-0.104,0.141-0.217,0.256-0.338,0.355c-0.099,0.084-0.204,0.156-0.326,0.22
	c-0.148,0.071-0.311,0.127-0.482,0.17c-0.188,0.037-0.383,0.062-0.582,0.062C181.125,35.996,180.787,35.951,180.42,35.861"/>
<path fill="#231815" d="M97.57,19.049l-0.323,0.642c-2.021-0.243-3.802-0.688-5.346-1.337c-1.468,0.544-3.238,0.979-5.313,1.294
	l-0.355-0.569c1.998-0.326,3.626-0.713,4.889-1.156c-0.63-0.334-1.322-0.779-2.076-1.339c-0.825,0.414-1.516,0.728-2.069,0.938
	l-0.413-0.533c0.449-0.17,1.095-0.453,1.937-0.852c-0.208-0.189-0.386-0.367-0.533-0.533l0.438-0.425
	c0.141,0.123,0.384,0.33,0.73,0.622c0.521-0.296,1.071-0.677,1.65-1.143c-0.119-0.017-0.215-0.025-0.286-0.025
	c-0.546-0.034-0.819-0.294-0.819-0.781v-1.586h0.654v1.484c0,0.102,0.045,0.172,0.136,0.21c0.091,0.038,0.497,0.058,1.216,0.058
	c0.932,0,1.515-0.024,1.749-0.073c0.234-0.049,0.354-0.361,0.354-0.937l0.652,0.311c-0.066,0.859-0.4,1.289-1.003,1.289
	c-0.354,0-0.917,0.017-1.688,0.051c-0.36,0.343-0.72,0.649-1.079,0.92h4.851v0.616c-0.932,0.762-1.85,1.354-2.755,1.778
	C94.068,18.469,95.671,18.83,97.57,19.049 M97.26,13.12H96.6v-1.339h-9.388v1.339h-0.673v-1.974H97.26V13.12z M89.033,12.809
	c-0.504,0.897-1.119,1.67-1.848,2.317l-0.47-0.47c0.749-0.673,1.335-1.413,1.758-2.222L89.033,12.809z M96.701,8.804
	c-2.435,0.512-5.208,0.769-8.322,0.769c-0.406,0-0.813-0.005-1.219-0.014l-0.31-0.672c0.665,0.025,1.316,0.037,1.955,0.037
	c2.721,0,5.25-0.234,7.585-0.704L96.701,8.804z M89.692,10.588l-0.597,0.311c-0.33-0.364-0.62-0.649-0.87-0.857l0.571-0.323
	C89.167,10.014,89.465,10.304,89.692,10.588 M94.439,16.192h-4.652l-0.083,0.051c0.566,0.44,1.312,0.896,2.233,1.364
	C92.918,17.186,93.751,16.713,94.439,16.192 M92.931,13.203l-0.521,0.399c-0.259-0.394-0.602-0.774-1.028-1.143l0.495-0.406
	C92.358,12.485,92.71,12.868,92.931,13.203 M92.893,10.486l-0.559,0.361c-0.313-0.428-0.553-0.722-0.717-0.883l0.546-0.355
	C92.391,9.83,92.634,10.122,92.893,10.486 M96.301,9.623c-0.27,0.414-0.604,0.835-1.003,1.263l-0.597-0.349
	c0.373-0.373,0.704-0.781,0.997-1.226L96.301,9.623z M96.885,14.593l-0.559,0.337c-0.462-0.838-0.96-1.592-1.498-2.26l0.546-0.381
	C96.053,13.182,96.555,13.949,96.885,14.593"/>
<path fill="#231815" d="M111.844,16.776h-5.707l0.345,0.261c-1.168,1.129-2.595,2.039-4.277,2.729l-0.482-0.584
	c1.32-0.465,2.644-1.268,3.968-2.405h-2.576V8.601h8.733v8.175H111.844z M111.171,11.031v-1.77h-7.37v1.771L111.171,11.031
	L111.171,11.031z M111.171,11.717h-7.369v1.835h7.369V11.717z M111.171,14.224h-7.369v1.885h7.369V14.224z M113.195,19.037
	l-0.399,0.606c-1.235-0.687-2.719-1.292-4.45-1.813l0.42-0.584C110.67,17.895,112.146,18.49,113.195,19.037"/>
<path fill="#231815" d="M119.863,17.189c-0.607,0.977-1.254,1.784-1.937,2.418l-0.569-0.496c0.696-0.527,1.349-1.299,1.948-2.312
	L119.863,17.189z M123.521,10.391h-0.929v5.345h0.901v0.635h-6.087v-0.635h1.13v-5.345h-0.936V9.769h0.936V8.283h0.653v1.485h2.741
	V8.283h0.659v1.485h0.927v0.623H123.521z M121.936,10.39h-2.741v1.264h2.741V10.39z M121.936,12.314h-2.741v1.352h2.741V12.314z
	 M121.936,14.32h-2.741v1.415h2.741V14.32z M122.626,18.49l-0.578,0.362c-0.224-0.514-0.588-1.063-1.092-1.65l0.532-0.336
	C121.998,17.434,122.377,17.975,122.626,18.49 M128.693,13.057h-1.438v6.589h-0.667v-6.589h-1.753
	c0.046,2.886-0.448,5.087-1.485,6.603l-0.621-0.361c0.986-1.406,1.479-3.361,1.479-5.866V9.362c1.456-0.178,2.761-0.526,3.917-1.048
	l0.413,0.547c-1.146,0.499-2.368,0.848-3.676,1.047v2.501h3.834L128.693,13.057z"/>
<path fill="#231815" d="M134.32,16.617c-0.146,1.084-0.392,2.111-0.729,3.086l-0.646-0.285c0.315-0.775,0.571-1.751,0.769-2.928
	L134.32,16.617z M137.509,15.799l-0.622,0.209c-0.046-0.236-0.109-0.484-0.196-0.742c-1.313,0.364-2.466,0.637-3.459,0.818
	l-0.209-0.723c0.956-0.859,1.778-1.844,2.471-2.952c-1.146,0.187-1.871,0.298-2.187,0.337l-0.178-0.648
	c0.821-0.998,1.519-2.26,2.088-3.783l0.629,0.203c-0.453,1.219-1.061,2.372-1.82,3.46c0.578-0.047,1.201-0.138,1.872-0.272
	c0.342-0.547,0.646-1.101,0.907-1.664l0.615,0.248c-1.096,2.162-2.22,3.813-3.371,4.951c0.711-0.11,1.521-0.301,2.433-0.571
	c-0.105-0.321-0.224-0.616-0.351-0.882l0.584-0.21C137.045,14.259,137.311,14.999,137.509,15.799 M135.96,19.17l-0.673,0.127
	c-0.038-0.843-0.157-1.744-0.355-2.705l0.629-0.102C135.759,17.32,135.893,18.213,135.96,19.17 M137.482,18.566l-0.622,0.223
	c-0.071-0.618-0.262-1.393-0.564-2.324l0.616-0.196C137.195,17.098,137.387,17.863,137.482,18.566 M144.047,18.713
	c0,0.221-0.074,0.418-0.222,0.594c-0.148,0.178-0.322,0.283-0.521,0.324c-0.198,0.039-0.593,0.049-1.182,0.027l-0.286-0.711
	c0.274,0.01,0.513,0.014,0.711,0.014c0.39,0,0.626-0.025,0.711-0.076c0.085-0.051,0.128-0.143,0.128-0.273V9.299h-4.933v10.349
	h-0.66V8.664h6.252L144.047,18.713z M143.006,12.536h-4.17v-0.635h1.041c-0.141-0.512-0.354-1.063-0.642-1.65l0.615-0.247
	c0.269,0.575,0.51,1.208,0.726,1.897h0.729c0.306-0.542,0.598-1.183,0.87-1.923l0.598,0.234c-0.119,0.359-0.358,0.923-0.725,1.688
	h0.958V12.536z M143.006,14.904h-2.779v1.923c0,0.226,0.104,0.337,0.313,0.337h2.292v0.609h-2.355c-0.604,0-0.907-0.313-0.907-0.935
	v-1.936h-0.729V14.28h2.023c-0.103-0.321-0.267-0.717-0.493-1.187l0.641-0.222c0.147,0.321,0.334,0.791,0.561,1.408h1.439
	L143.006,14.904z"/>
<path fill="#231815" d="M153.223,18.104c-1.422,0.561-2.916,1.05-4.479,1.48l-0.186-0.688c0.306-0.07,0.535-0.138,0.691-0.195
	v-5.294h0.646v5.097c0.183-0.033,0.54-0.138,1.077-0.313v-5.756h-1.873V8.74h3.722v3.694h-1.188v1.999h1.437V15.1h-1.437v2.856
	c0.524-0.165,1.056-0.368,1.588-0.608L153.223,18.104L153.223,18.104z M152.145,9.395h-2.358v2.398h2.358V9.395z M159.982,13.9
	l-0.414,0.609c-1.107-0.418-2.097-0.911-2.963-1.479c-0.787,0.593-1.851,1.101-3.188,1.523l-0.443-0.629
	c1.273-0.363,2.293-0.797,3.062-1.301c-0.563-0.486-1.051-1.075-1.461-1.765c-0.437,0.368-0.786,0.633-1.056,0.794l-0.532-0.508
	c1.334-0.792,2.26-1.763,2.774-2.914l0.659,0.209c-0.146,0.339-0.317,0.665-0.521,0.979h3.286v0.609
	c-0.588,1.053-1.254,1.901-2,2.545C157.98,13.091,158.913,13.533,159.982,13.9 M159.05,19.658h-0.679v-0.598h-3.586v0.598h-0.688
	V14.89h4.951L159.05,19.658z M158.371,15.551h-3.586v2.863h3.586V15.551z M158.346,10.041h-2.951
	c-0.023,0.043-0.075,0.107-0.15,0.194c-0.076,0.087-0.125,0.143-0.146,0.168c0.375,0.728,0.884,1.318,1.522,1.771
	C157.296,11.615,157.872,10.904,158.346,10.041"/>
</svg>
